<svg viewBox="0 0 28 28" fill="#e60023" xmlns="http://www.w3.org/2000/svg">
  <path d="M14 2C7.37 2 2 7.37 2 14c0 5.1 3.07 9.5 7.5 11.45-.1-.95-.19-2.4.04-3.44l1.4-5.93s-.35-.71-.35-1.76c0-1.65.96-2.88 2.15-2.88 1.01 0 1.5.76 1.5 1.67 0 1.02-.65 2.54-1 3.95-.28 1.18.59 2.14 1.75 2.14 2.1 0 3.72-2.21 3.72-5.41 0-2.83-2.03-4.8-4.94-4.8-3.37 0-5.34 2.53-5.34 5.14 0 1.02.39 2.11.88 2.7.1.12.11.22.08.34l-.33 1.33c-.05.22-.18.27-.4.16-1.5-.7-2.44-2.88-2.44-4.64 0-3.77 2.74-7.23 7.9-7.23 4.15 0 7.37 2.96 7.37 6.9 0 4.12-2.6 7.43-6.2 7.43-1.21 0-2.35-.63-2.74-1.37l-.74 2.78c-.27 1.04-1 2.34-1.49 3.13.56.17 1.16.27 1.77.27C20.63 26 26 20.63 26 14S20.63 2 14 2z"/>
</svg>
